{
  "accessors": [
    {
      "bufferView": 1,
      "componentType": 5126,
      "count": 65532,
      "max": [
        102.3499984741211,
        102.3499984741211,
        55.918426513671875
      ],
      "min": [
        -80.97957611083984,
        -102.3499984741211,
        0.0
      ],
      "type": "VEC3"
    },
    {
      "bufferView": 1,
      "byteOffset": 786384,
      "componentType": 5126,
      "count": 65532,
      "max": [
        0.997490644454956,
        0.9993666410446167,
        1.0
      ],
      "min": [
        -0.9936847686767578,
        -0.9999998807907104,
        -0.5604820251464844
      ],
      "type": "VEC3"
    },
    {
      "bufferView": 0,
      "componentType": 5125,
      "count": 301200,
      "type": "SCALAR"
    },
    {
      "bufferView": 1,
      "byteOffset": 1572768,
      "componentType": 5126,
      "count": 65532,
      "max": [
        50.00361251831055,
        102.3499984741211,
        55.88365173339844
      ],
      "min": [
        -102.3499984741211,
        -88.66967010498047,
        0.12292671203613281
      ],
      "type": "VEC3"
    },
    {
      "bufferView": 1,
      "byteOffset": 2359152,
      "componentType": 5126,
      "count": 65532,
      "max": [
        0.996981143951416,
        0.9986889958381653,
        1.0
      ],
      "min": [
        -0.9999889731407166,
        -0.9929482340812683,
        -0.6350855827331543
      ],
      "type": "VEC3"
    },
    {
      "bufferView": 0,
      "byteOffset": 1204800,
      "componentType": 5125,
      "count": 276351,
      "type": "SCALAR"
    },
    {
      "bufferView": 1,
      "byteOffset": 3145536,
      "componentType": 5126,
      "count": 65532,
      "max": [
        98.1839370727539,
        76.97452545166016,
        50.97392272949219
      ],
      "min": [
        -87.89995574951172,
        -102.3499984741211,
        0.043201446533203125
      ],
      "type": "VEC3"
    },
    {
      "bufferView": 1,
      "byteOffset": 3931920,
      "componentType": 5126,
      "count": 65532,
      "max": [
        0.9973484873771667,
        0.9931980967521667,
        0.9999998211860657
      ],
      "min": [
        -0.9988701939582825,
        -0.9957311153411865,
        -0.5705471038818359
      ],
      "type": "VEC3"
    },
    {
      "bufferView": 0,
      "byteOffset": 2310204,
      "componentType": 5125,
      "count": 283347,
      "type": "SCALAR"
    },
    {
      "bufferView": 1,
      "byteOffset": 4718304,
      "componentType": 5126,
      "count": 65532,
      "max": [
        100.12603759765625,
        100.3499984741211,
        55.87477111816406
      ],
      "min": [
        -102.3499984741211,
        -102.3499984741211,
        0.01580810546875
      ],
      "type": "VEC3"
    },
    {
      "bufferView": 1,
      "byteOffset": 5504688,
      "componentType": 5126,
      "count": 65532,
      "max": [
        0.9992794990539551,
        0.9984269142150879,
        1.0
      ],
      "min": [
        -0.9963988661766052,
        -0.9989814758300781,
        -0.8880537152290344
      ],
      "type": "VEC3"
    },
    {
      "bufferView": 0,
      "byteOffset": 3443592,
      "componentType": 5125,
      "count": 277059,
      "type": "SCALAR"
    },
    {
      "bufferView": 1,
      "byteOffset": 6291072,
      "componentType": 5126,
      "count": 65532,
      "max": [
        102.3499984741211,
        102.3499984741211,
        55.51763916015625
      ],
      "min": [
        -102.3499984741211,
        -102.3499984741211,
        0.03854942321777344
      ],
      "type": "VEC3"
    },
    {
      "bufferView": 1,
      "byteOffset": 7077456,
      "componentType": 5126,
      "count": 65532,
      "max": [
        0.9992641806602478,
        0.998357892036438,
        1.0
      ],
      "min": [
        -0.9972861409187317,
        -0.9996070265769958,
        -0.994894802570343
      ],
      "type": "VEC3"
    },
    {
      "bufferView": 0,
      "byteOffset": 4551828,
      "componentType": 5125,
      "count": 202704,
      "type": "SCALAR"
    },
    {
      "bufferView": 1,
      "byteOffset": 7863840,
      "componentType": 5126,
      "count": 65533,
      "max": [
        102.3499984741211,
        102.3499984741211,
        55.88365173339844
      ],
      "min": [
        -102.3499984741211,
        -102.3499984741211,
        0.01044464111328125
      ],
      "type": "VEC3"
    },
    {
      "bufferView": 1,
      "byteOffset": 8650236,
      "componentType": 5126,
      "count": 65533,
      "max": [
        0.9983101487159729,
        1.0,
        0.9999999403953552
      ],
      "min": [
        -0.998989999294281,
        -1.0,
        -0.9984808564186096
      ],
      "type": "VEC3"
    },
    {
      "bufferView": 0,
      "byteOffset": 5362644,
      "componentType": 5125,
      "count": 113247,
      "type": "SCALAR"
    },
    {
      "bufferView": 1,
      "byteOffset": 9436632,
      "componentType": 5126,
      "count": 17936,
      "max": [
        96.8333969116211,
        102.26727294921875,
        55.40496826171875
      ],
      "min": [
        -102.18897247314453,
        -96.6879653930664,
        0.17179107666015625
      ],
      "type": "VEC3"
    },
    {
      "bufferView": 1,
      "byteOffset": 9651864,
      "componentType": 5126,
      "count": 17936,
      "max": [
        0.9974696040153503,
        0.999722421169281,
        0.9999985098838806
      ],
      "min": [
        -0.9904592633247375,
        -0.9919187426567078,
        -0.9723904132843018
      ],
      "type": "VEC3"
    },
    {
      "bufferView": 0,
      "byteOffset": 5815632,
      "componentType": 5125,
      "count": 21516,
      "type": "SCALAR"
    }
  ],
  "asset": {
    "extras": {
      "author": "Isaac Rivera (https://sketchfab.com/silverpirate)",
      "license": "CC-BY-4.0 (http://creativecommons.org/licenses/by/4.0/)",
      "source": "https://sketchfab.com/3d-models/mountain-terrain-6207382f60ae4f17a49d5ba0c5e4d05a",
      "title": "Mountain Terrain"
    },
    "generator": "Sketchfab-11.49.5",
    "version": "2.0"
  },
  "bufferViews": [
    {
      "buffer": 0,
      "byteLength": 5901696,
      "name": "floatBufferViews",
      "target": 34963
    },
    {
      "buffer": 0,
      "byteLength": 9867096,
      "byteOffset": 5901696,
      "byteStride": 12,
      "name": "floatBufferViews",
      "target": 34962
    }
  ],
  "buffers": [
    {
      "byteLength": 15768792,
      "uri": "scene.bin"
    }
  ],
  "materials": [
    {
      "doubleSided": true,
      "name": "Default_OBJ",
      "pbrMetallicRoughness": {
        "baseColorFactor": [
          0.32436159703617645,
          0.32436159703617645,
          0.32436159703617645,
          1.0
        ],
        "metallicFactor": 0.0,
        "roughnessFactor": 0.8590144647319556
      }
    }
  ],
  "meshes": [
    {
      "name": "Mountain1_Final_Default OBJ_0",
      "primitives": [
        {
          "attributes": {
            "NORMAL": 1,
            "POSITION": 0
          },
          "indices": 2,
          "material": 0,
          "mode": 4
        }
      ]
    },
    {
      "name": "Mountain1_Final_Default OBJ_0",
      "primitives": [
        {
          "attributes": {
            "NORMAL": 4,
            "POSITION": 3
          },
          "indices": 5,
          "material": 0,
          "mode": 4
        }
      ]
    },
    {
      "name": "Mountain1_Final_Default OBJ_0",
      "primitives": [
        {
          "attributes": {
            "NORMAL": 7,
            "POSITION": 6
          },
          "indices": 8,
          "material": 0,
          "mode": 4
        }
      ]
    },
    {
      "name": "Mountain1_Final_Default OBJ_0",
      "primitives": [
        {
          "attributes": {
            "NORMAL": 10,
            "POSITION": 9
          },
          "indices": 11,
          "material": 0,
          "mode": 4
        }
      ]
    },
    {
      "name": "Mountain1_Final_Default OBJ_0",
      "primitives": [
        {
          "attributes": {
            "NORMAL": 13,
            "POSITION": 12
          },
          "indices": 14,
          "material": 0,
          "mode": 4
        }
      ]
    },
    {
      "name": "Mountain1_Final_Default OBJ_0",
      "primitives": [
        {
          "attributes": {
            "NORMAL": 16,
            "POSITION": 15
          },
          "indices": 17,
          "material": 0,
          "mode": 4
        }
      ]
    },
    {
      "name": "Mountain1_Final_Default OBJ_0",
      "primitives": [
        {
          "attributes": {
            "NORMAL": 19,
            "POSITION": 18
          },
          "indices": 20,
          "material": 0,
          "mode": 4
        }
      ]
    }
  ],
  "nodes": [
    {
      "children": [
        1
      ],
      "matrix": [
        1.0787935256958008,
        0.0,
        0.0,
        0.0,
        0.0,
        2.395402822088057e-16,
        -1.0787935256958008,
        0.0,
        0.0,
        1.0787935256958008,
        2.395402822088057e-16,
        0.0,
        0.0,
        0.0,
        0.0,
        1.0
      ],
      "name": "Sketchfab_model"
    },
    {
      "children": [
        2
      ],
      "matrix": [
        0.009999999776482582,
        0.0,
        0.0,
        0.0,
        0.0,
        0.0,
        0.009999999776482582,
        0.0,
        0.0,
        -0.009999999776482582,
        0.0,
        0.0,
        0.0,
        0.0,
        0.0,
        1.0
      ],
      "name": "178f3af327e149bcb5cfc3d9f6ceb2e9.fbx"
    },
    {
      "children": [
        3
      ],
      "name": "RootNode"
    },
    {
      "children": [
        4,
        5,
        6,
        7,
        8,
        9,
        10
      ],
      "matrix": [
        100.0,
        0.0,
        0.0,
        0.0,
        0.0,
        -1.629206793918314e-05,
        -99.99999999999868,
        0.0,
        0.0,
        99.99999999999868,
        -1.629206793918314e-05,
        0.0,
        0.0,
        0.0,
        0.0,
        1.0
      ],
      "name": "Mountain1_Final"
    },
    {
      "mesh": 0,
      "name": "Mountain1_Final_Default OBJ_0"
    },
    {
      "mesh": 1,
      "name": "Mountain1_Final_Default OBJ_0"
    },
    {
      "mesh": 2,
      "name": "Mountain1_Final_Default OBJ_0"
    },
    {
      "mesh": 3,
      "name": "Mountain1_Final_Default OBJ_0"
    },
    {
      "mesh": 4,
      "name": "Mountain1_Final_Default OBJ_0"
    },
    {
      "mesh": 5,
      "name": "Mountain1_Final_Default OBJ_0"
    },
    {
      "mesh": 6,
      "name": "Mountain1_Final_Default OBJ_0"
    }
  ],
  "scene": 0,
  "scenes": [
    {
      "name": "Sketchfab_Scene",
      "nodes": [
        0
      ]
    }
  ]
}
